<svg width="293" height="320" xmlns="http://www.w3.org/2000/svg" xmlns:xlink="http://www.w3.org/1999/xlink" xml:space="preserve" overflow="hidden"><defs><clipPath id="clip0"><rect x="378" y="146" width="293" height="320"/></clipPath><clipPath id="clip1"><rect x="382" y="154" width="289" height="304"/></clipPath><clipPath id="clip2"><rect x="382" y="154" width="289" height="304"/></clipPath><clipPath id="clip3"><rect x="382" y="154" width="289" height="304"/></clipPath></defs><g clip-path="url(#clip0)" transform="translate(-378 -146)"><g clip-path="url(#clip1)"><g clip-path="url(#clip2)"><g clip-path="url(#clip3)"><path d="M216.146 154.845 216.146 122.464C216.233 119.523 213.917 117.069 210.976 116.982 209.85 116.949 208.742 117.275 207.811 117.91L79.2899 206.81C69.2151 213.776 55.3997 211.258 48.4324 201.183 45.8735 197.483 44.5004 193.092 44.4953 188.592L44.4953 145.738C44.5505 131.167 51.7499 117.552 63.7599 109.303L101.97 82.8879C107.961 78.7684 111.511 71.9405 111.443 64.6707L111.443 34.4303 111.443 5.3285C111.547 2.38749 109.247-0.0809746 106.307-0.184966 105.15-0.225859 104.011 0.110837 103.063 0.774227L76.2841 19.4467C70.3184 23.588 66.7752 30.4018 66.8113 37.6639L66.8113 53.2395 34.0205 76.0109C12.8178 90.6512 0.113227 114.734-9.55527e-07 140.499L0 188.502C-0.0567706 225.351 29.7688 255.268 66.6173 255.325 80.2444 255.346 93.5513 251.193 104.748 243.426L206.673 173.062C212.639 168.921 216.182 162.107 216.146 154.845Z" fill="#FFA600" transform="matrix(1.0022 0 0 1 382.96 155.861)"/><path d="M178.209 57.3838 76.193 127.793C70.2039 131.918 66.6409 138.738 66.6746 146.01L66.6746 178.391C66.6194 181.358 68.9801 183.808 71.9476 183.864 73.0532 183.884 74.138 183.564 75.0545 182.945L203.575 94.0002C213.65 87.033 227.467 89.5522 234.433 99.6274 236.993 103.327 238.366 107.719 238.371 112.217L238.371 154.845C238.336 169.399 231.173 183.01 219.198 191.279L185.041 214.871 181.123 217.558 181.123 217.558C175.146 221.688 171.598 228.509 171.65 235.775L171.65 244.018 171.65 295.208C171.547 298.149 173.846 300.618 176.788 300.722 177.944 300.762 179.082 300.426 180.031 299.762L206.855 281.272C212.827 277.137 216.373 270.319 216.329 263.055L216.329 247.662 249.028 224.89C270.329 210.191 283.047 185.964 283.048 160.082L283.048 112.263C283.114 75.4144 253.296 45.4888 216.449 45.4223 202.777 45.3975 189.429 49.5731 178.209 57.3838Z" fill="#B3CB2D" transform="matrix(1.0022 0 0 1 382.96 155.861)"/><path d="M374.452 150.519C374.452 104.383 408.883 73.0961 451.875 73.0961 476.046 72.2576 498.858 84.2613 511.855 104.657 512.583 105.714 512.319 107.159 511.263 107.889 511.162 107.958 511.056 108.02 510.944 108.073L492.727 117.182C491.649 117.726 490.335 117.373 489.676 116.362 481.223 103.753 467.009 96.2277 451.829 96.3226 423.228 96.3226 401.186 119.095 401.186 150.564 401.186 182.034 423.548 204.942 452.103 204.942 467.294 205.131 481.543 197.603 489.949 184.949 490.595 183.919 491.925 183.562 493 184.129L511.217 193.237C512.401 193.851 512.862 195.309 512.249 196.492 512.212 196.563 512.171 196.633 512.128 196.7 499.101 217.075 476.272 229.044 452.103 228.169 408.883 228.169 374.452 196.654 374.452 150.519Z" fill="#191715" transform="matrix(1.0022 0 0 1 382.96 155.861)"/><path d="M600.436 213.777C591.347 223.404 578.553 228.648 565.323 228.169 547.515 228.169 527.522 216.237 527.522 192.145 527.522 167.188 547.515 156.804 565.323 156.804 578.238 156.151 590.822 161.019 599.935 170.193 599.995 170.331 600.156 170.395 600.294 170.335 600.358 170.307 600.408 170.257 600.436 170.193L600.436 154.572C600.436 141.957 590.052 134.305 574.977 134.305 563.531 134.278 552.523 138.705 544.281 146.648 543.611 147.257 542.574 147.207 541.966 146.537 541.894 146.459 541.831 146.374 541.777 146.284L533.807 132.621C533.393 131.952 533.528 131.082 534.125 130.571 546.349 119.519 562.326 113.541 578.803 113.856 602.894 113.856 624.072 124.012 624.072 153.251L624.072 223.843C624.047 224.654 623.382 225.301 622.569 225.301L601.893 225.301C601.088 225.301 600.436 224.647 600.436 223.843ZM600.436 190.049C600.436 189.117 600.218 188.197 599.798 187.363 594.469 178.487 584.874 173.057 574.522 173.062 561.268 173.062 551.34 180.713 551.34 192.646 551.34 204.577 561.268 212.001 574.522 212.001 584.056 212.239 593.196 208.196 599.434 200.98 600.085 199.994 600.433 198.838 600.436 197.656Z" fill="#191715" transform="matrix(1.0022 0 0 1 382.96 155.861)"/><path d="M659.368 200.389 659.368 137.448 642.972 137.448C642.109 137.449 641.403 136.763 641.379 135.9L641.379 118.411C641.379 117.531 642.092 116.818 642.972 116.818L659.368 116.818 659.368 88.3984C659.368 87.6439 659.98 87.0322 660.734 87.0322L681.684 87.0322C682.413 87.0317 683.005 87.6228 683.006 88.3521 683.006 88.3676 683.005 88.383 683.005 88.3984L683.005 116.772 703.498 116.772C704.379 116.772 705.094 117.485 705.094 118.366L705.094 135.9C705.068 136.763 704.361 137.449 703.498 137.448L683.141 137.448 683.141 194.422C683.141 201.846 686.74 207.22 693.525 207.22 696.895 207.255 700.197 206.271 702.997 204.395 703.438 204.06 704.066 204.146 704.402 204.586 704.463 204.667 704.512 204.756 704.546 204.851L709.51 220.609C709.652 220.967 709.541 221.375 709.238 221.611 703.021 226.409 695.254 228.744 687.423 228.169 669.069 228.169 659.368 218.287 659.368 200.389Z" fill="#191715" transform="matrix(1.0022 0 0 1 382.96 155.861)"/><path d="M774.865 113.856C807.474 113.856 828.423 138.86 828.423 173.062L828.423 176.843C828.399 177.864 827.577 178.686 826.556 178.71L745.49 178.71C744.962 178.733 744.552 179.178 744.575 179.707 744.575 179.724 744.576 179.74 744.578 179.757 746.688 196.99 761.813 209.625 779.145 208.631 790.098 208.583 800.681 204.663 809.022 197.565 809.444 197.099 810.164 197.065 810.63 197.488 810.657 197.513 810.682 197.538 810.707 197.565L820.225 211.227C820.577 211.65 820.577 212.263 820.225 212.685 808.134 222.928 792.661 228.303 776.823 227.76 744.214 227.759 719.895 204.987 719.895 170.603 719.576 139.497 742.665 113.856 774.865 113.856ZM745.809 162.041 803.966 162.041C804.747 162.041 805.379 161.41 805.379 160.63 805.379 160.614 805.379 160.599 805.378 160.583 804.472 144.624 790.827 132.404 774.865 133.258 759.076 132.865 745.718 144.845 744.396 160.583 744.27 161.353 744.792 162.079 745.563 162.205 745.643 162.218 745.726 162.224 745.809 162.223Z" fill="#191715" transform="matrix(1.0022 0 0 1 382.96 155.861)"/><path d="M925.202 157.487C925.202 140.636 916.639 134.99 903.34 134.99 892.574 135.312 882.53 140.484 876.015 149.062 875.746 149.432 875.603 149.879 875.606 150.337L875.606 224.161C875.606 224.891 875.014 225.482 874.284 225.482L853.244 225.482C852.532 225.458 851.968 224.873 851.968 224.161L851.968 118.047C851.991 117.353 852.549 116.795 853.244 116.772L874.284 116.772C874.997 116.772 875.581 117.336 875.606 118.047L875.606 130.754C875.696 130.904 875.892 130.953 876.043 130.863 876.088 130.835 876.125 130.798 876.152 130.754 885.79 120.153 899.399 114.033 913.724 113.856 937.134 113.856 948.842 126.472 948.842 148.743L948.842 224.161C948.842 224.891 948.25 225.482 947.516 225.482L926.476 225.482C925.765 225.458 925.202 224.873 925.202 224.161Z" fill="#191715" transform="matrix(1.0022 0 0 1 382.96 155.861)"/><path d="M1094.12 160.857 1143.11 160.857C1144.58 160.857 1145.76 162.04 1145.76 163.499L1145.76 178.528C1145.74 179.969 1144.56 181.123 1143.11 181.123L1094.12 181.123C1092.7 181.099 1091.55 179.951 1091.52 178.528L1091.52 163.499C1091.52 162.057 1092.68 160.881 1094.12 160.857Z" fill="#191715" transform="matrix(1.0022 0 0 1 382.96 155.861)"/><path d="M1215.99 167.506 1175 224.844C1174.74 225.244 1174.3 225.484 1173.82 225.482L1145.99 225.482C1145.15 225.483 1144.49 224.81 1144.49 223.98 1144.49 223.67 1144.58 223.367 1144.76 223.114L1198.78 148.925C1198.96 148.663 1198.96 148.321 1198.78 148.06L1147.9 77.696C1147.42 77.0488 1147.56 76.1362 1148.21 75.6577 1148.47 75.4603 1148.8 75.36 1149.13 75.3732L1176.97 75.3732C1177.43 75.3768 1177.87 75.5954 1178.15 75.9654L1215.99 129.66C1216.2 129.974 1216.62 130.061 1216.94 129.852 1217.02 129.801 1217.08 129.736 1217.13 129.66L1254.62 75.9654C1254.91 75.5883 1255.37 75.3695 1255.85 75.3732L1283.89 75.3732C1284.7 75.3669 1285.36 76.0142 1285.37 76.8191 1285.37 77.1344 1285.27 77.4421 1285.08 77.696L1234.21 147.877C1234.02 148.121 1234.02 148.454 1234.21 148.697L1288.31 223.159C1288.79 223.838 1288.63 224.775 1287.95 225.255 1287.71 225.424 1287.43 225.52 1287.13 225.528L1259.26 225.528C1258.78 225.529 1258.34 225.29 1258.08 224.89L1217.08 167.552C1216.83 167.239 1216.37 167.19 1216.06 167.444 1216.04 167.463 1216.01 167.485 1215.99 167.506Z" fill="#191715" transform="matrix(1.0022 0 0 1 382.96 155.861)"/><path d="M1046.07 213.641C1037.02 223.27 1024.25 228.532 1011.05 228.079 993.246 228.079 973.201 216.146 973.201 192.054 973.201 167.051 993.246 156.713 1011.05 156.713 1024.23 155.988 1037.06 161.082 1046.15 170.649L1046.15 154.48C1046.15 141.865 1035.78 134.214 1020.71 134.214 1009.27 134.18 998.257 138.589 990.012 146.511 989.382 147.126 988.367 147.113 987.756 146.483 987.652 146.383 987.568 146.27 987.502 146.148L979.529 132.483C979.134 131.798 979.266 130.925 979.849 130.389 992.08 119.416 1008.02 113.505 1024.44 113.856 1048.52 113.856 1069.67 123.967 1069.67 153.251L1069.67 223.888C1069.67 224.693 1069.02 225.346 1068.21 225.346L1047.48 225.346C1046.67 225.346 1046.02 224.693 1046.02 223.888ZM1046.07 189.913C1046.06 188.996 1045.84 188.091 1045.43 187.272 1040.08 178.431 1030.49 173.039 1020.15 173.062 1006.91 173.062 996.979 180.713 996.979 192.646 996.979 204.577 1006.91 212.001 1020.15 212.001 1029.68 212.214 1038.8 208.155 1045.02 200.935 1045.7 199.962 1046.07 198.8 1046.07 197.611Z" fill="#191715" transform="matrix(1.0022 0 0 1 382.96 155.861)"/></g></g></g></g></svg>