<?xml version="1.0" encoding="us-ascii" standalone="no"?><svg xmlns="http://www.w3.org/2000/svg" xmlns:xlink="http://www.w3.org/1999/xlink" contentStyleType="text/css" height="487.5px" preserveAspectRatio="none" style="width:883px;height:487px;" version="1.1" viewBox="0 0 883 487" width="883.3333px" zoomAndPan="magnify"><defs><linearGradient id="gc89ljg0rqifc0" x1="50%" x2="50%" y1="0%" y2="100%"><stop offset="0%" stop-color="#F18E3E"/><stop offset="100%" stop-color="#EC7211"/></linearGradient></defs><g><!--entity User--><g id="elem_User"><ellipse cx="491.6667" cy="22.9167" fill="url(#gc89ljg0rqifc0)" rx="16.6667" ry="16.6667" style="stroke:#EC7211;stroke-width:1.5625;"/><path d="M491.6667,43.75 C495.8333,43.75 498.9583,43.75 503.125,39.5833 C511.4583,39.5833 519.7917,47.9167 519.7917,56.25 L519.7917,60.4167 C519.7917,64.5833 515.625,68.75 511.4583,68.75 L471.875,68.75 C467.7083,68.75 463.5417,64.5833 463.5417,60.4167 L463.5417,56.25 C463.5417,47.9167 471.875,39.5833 480.2083,39.5833 C484.375,43.75 487.5,43.75 491.6667,43.75 " fill="url(#gc89ljg0rqifc0)" style="stroke:#EC7211;stroke-width:1.5625;"/><text fill="#4E5D6C" font-family="Verdana" font-size="12.5" lengthAdjust="spacing" textLength="30.2083" x="476.5625" y="87.1236">User</text></g><g id="elem_u1"><ellipse cx="319.8738" cy="189.3914" fill="url(#gc89ljg0rqifc0)" rx="124.5613" ry="27.4123" style="stroke:#EC7211;stroke-width:2.0833333333333335;"/><text fill="#FFFFFF" font-family="Verdana" font-size="12.5" lengthAdjust="spacing" textLength="185.4167" x="227.1655" y="191.6355">Catena-X GitHub Organisation</text></g><g id="elem_u2"><ellipse cx="664.7602" cy="189.7229" fill="url(#gc89ljg0rqifc0)" rx="147.0518" ry="31.9104" style="stroke:#EC7211;stroke-width:2.0833333333333335;"/><text fill="#FFFFFF" font-family="Verdana" font-size="12.5" lengthAdjust="spacing" textLength="236.4583" x="546.531" y="191.9669">Eclipse Tractus X GitHub Organisation</text></g><g id="elem_gl"><ellipse cx="674.0884" cy="304.6338" fill="url(#gc89ljg0rqifc0)" rx="78.2551" ry="20.7797" style="stroke:#EC7211;stroke-width:2.0833333333333335;"/><text fill="#FFFFFF" font-family="Verdana" font-size="12.5" lengthAdjust="spacing" textLength="83.3333" x="632.4218" y="306.8779">GitLab Issues</text></g><g id="elem_gh"><ellipse cx="247.1315" cy="304.6338" fill="url(#gc89ljg0rqifc0)" rx="80.4648" ry="20.7797" style="stroke:#EC7211;stroke-width:2.0833333333333335;"/><text fill="#FFFFFF" font-family="Verdana" font-size="12.5" lengthAdjust="spacing" textLength="86.4583" x="203.9023" y="306.8779">GitHub Issues</text></g><g id="elem_gh2"><ellipse cx="229.3539" cy="435.1416" fill="url(#gc89ljg0rqifc0)" rx="223.1039" ry="47.1208" style="stroke:#EC7211;stroke-width:2.0833333333333335;"/><a href="https://github.com/eclipse-tractusx/sig-infra/issues/new/choose" target="_top" title="https://github.com/eclipse-tractusx/sig-infra/issues/new/choose" xlink:actuate="onRequest" xlink:href="https://github.com/eclipse-tractusx/sig-infra/issues/new/choose" xlink:show="new" xlink:title="https://github.com/eclipse-tractusx/sig-infra/issues/new/choose" xlink:type="simple"><text fill="#0000FF" font-family="Verdana" font-size="12.5" lengthAdjust="spacing" text-decoration="underline" textLength="398.9583" x="29.8747" y="437.3857">https://github.com/eclipse-tractusx/sig-infra/issues/new/choose</text></a></g><g id="elem_gl2"><ellipse cx="683.3919" cy="435.1159" fill="url(#gc89ljg0rqifc0)" rx="194.3294" ry="41.3659" style="stroke:#EC7211;stroke-width:2.0833333333333335;"/><a href="https://gitlab.eclipse.org/eclipsefdn/helpdesk/-/issues" target="_top" title="https://gitlab.eclipse.org/eclipsefdn/helpdesk/-/issues" xlink:actuate="onRequest" xlink:href="https://gitlab.eclipse.org/eclipsefdn/helpdesk/-/issues" xlink:show="new" xlink:title="https://gitlab.eclipse.org/eclipsefdn/helpdesk/-/issues" xlink:type="simple"><text fill="#0000FF" font-family="Verdana" font-size="12.5" lengthAdjust="spacing" text-decoration="underline" textLength="338.5417" x="514.121" y="437.3599">https://gitlab.eclipse.org/eclipsefdn/helpdesk/-/issues</text></a></g><!--link User to u1--><g id="link_User_u1"><path d="M461.7281,74.9927 C431.0479,99.5375 383.5,137.575 352.0125,162.7646 " fill="none" id="User-u1" style="stroke:#EC7211;stroke-width:3.125;"/></g><!--link User to u2--><g id="link_User_u2"><path d="M521.3917,74.6792 C550.65,97.9438 595.4271,133.55 627.1083,158.7427 " fill="none" id="User-u2" style="stroke:#EC7211;stroke-width:3.125;"/></g><!--link u1 to gh--><g id="link_u1_gh"><path d="M302.6958,217.1229 C290.5115,236.0094 274.2615,261.1969 262.4375,279.5229 " fill="none" id="u1-to-gh" style="stroke:#EC7211;stroke-width:3.125;"/><polygon fill="#EC7211" points="259.5323,284.0271,268.1168,278.4094,262.3565,279.6509,261.1149,273.8907,259.5323,284.0271" style="stroke:#EC7211;stroke-width:3.125;"/></g><!--link u2 to gl--><g id="link_u2_gl"><path d="M667.1448,221.5083 C668.626,239.3594 670.4656,261.5385 671.8604,278.349 " fill="none" id="u2-to-gl" style="stroke:#EC7211;stroke-width:3.125;"/><polygon fill="#EC7211" points="672.3146,283.8302,675.6929,274.1432,671.8845,278.6397,667.388,274.8313,672.3146,283.8302" style="stroke:#EC7211;stroke-width:3.125;"/></g><!--link gl to gl2--><g id="link_gl_gl2"><path d="M675.4229,325.749 C676.6438,342.424 678.4281,366.8146 679.9938,388.2099 " fill="none" id="gl-to-gl2" style="stroke:#EC7211;stroke-width:3.125;"/><polygon fill="#EC7211" points="680.3865,393.5783,683.8575,383.9241,680.0062,388.3839,675.5464,384.5326,680.3865,393.5783" style="stroke:#EC7211;stroke-width:3.125;"/></g><!--link gh to gh2--><g id="link_gh_gh2"><path d="M244.1083,325.749 C242.0094,340.9313 239.0271,362.5104 236.2781,382.4013 " fill="none" id="gh-to-gh2" style="stroke:#EC7211;stroke-width:3.125;"/><polygon fill="#EC7211" points="235.5094,387.96,240.92,379.2436,236.2223,382.8007,232.6651,378.1029,235.5094,387.96" style="stroke:#EC7211;stroke-width:3.125;"/></g><!--SRC=[VT0zRyCW40RWdLznpOvH63rqgQesKgKERQLAKOQpSp4e62mEbFRV5tz4JeTsG3fukOUFksIe9y0Bon3HToJuRFs04Nl0DeNubhxTc1E7diIq11zC4KHcQf49DW-OoAFyX2URddC3hx53RncJ3Nu3o92tw-R7rjcX5E-nM9dXdoujwl6a6gGi1DpEz0gMzXTiOCUSYQV6plrAH_msDMkwtvkK1gwLwcmokQdQq2kQRoZJVCClnRQJrfyYAZinojD5jIO4fiDXCVKVgCEcMi0gnEwAduvU6NB3aVYivE9UCLUmRNdcVN7BD-kvT23Ac4ijIZ9lq3y0]--></g></svg>